<svg viewBox="0 0 174 174" fill="none" xmlns="http://www.w3.org/2000/svg">
  <circle cx="87" cy="87" r="87" fill="#CFDBEA"/>
  <path d="M87 0C38.9461 0 0 38.9461 0 87C0 135.054 38.9461 174 87 174C135.054 174 174 135.054 174 87C174 38.9461 135.054 0 87 0ZM87 43.5C100.516 43.5 111.469 54.4566 111.469 67.9688C111.469 81.4809 100.526 92.4375 87 92.4375C73.4878 92.4375 62.5312 81.4809 62.5312 67.9688C62.5312 54.4566 73.4742 43.5 87 43.5ZM87 152.25C69.0121 152.25 52.7098 144.933 40.8832 133.12C46.3887 118.911 59.9824 108.75 76.125 108.75H97.875C114.031 108.75 127.625 118.905 133.117 133.12C121.29 144.943 104.978 152.25 87 152.25Z" fill="#F2F4F8"/>
</svg>