<svg xmlns="http://www.w3.org/2000/svg" width="14" height="14" viewBox="0 0 14 14" fill="none">
  <path d="M7.00009 10.0766L4.57926 11.535C4.47231 11.603 4.36051 11.6322 4.24384 11.6225C4.12717 11.6127 4.02509 11.5738 3.93759 11.5058C3.85009 11.4377 3.78203 11.3527 3.73342 11.2506C3.68481 11.1485 3.67509 11.0343 3.70426 10.9079L4.34592 8.15163L2.20217 6.29954C2.10495 6.21204 2.04419 6.11239 2.01988 6.00059C1.99558 5.88878 2.00287 5.77941 2.04176 5.67246C2.08065 5.56552 2.13898 5.47802 2.21676 5.40996C2.29453 5.34191 2.40148 5.29816 2.53759 5.27871L5.36676 5.03079L6.46051 2.43496C6.50912 2.31829 6.58447 2.23079 6.68655 2.17246C6.78863 2.11413 6.89315 2.08496 7.00009 2.08496C7.10704 2.08496 7.21155 2.11413 7.31363 2.17246C7.41572 2.23079 7.49106 2.31829 7.53967 2.43496L8.63342 5.03079L11.4626 5.27871C11.5987 5.29816 11.7056 5.34191 11.7834 5.40996C11.8612 5.47802 11.9195 5.56552 11.9584 5.67246C11.9973 5.77941 12.0046 5.88878 11.9803 6.00059C11.956 6.11239 11.8952 6.21204 11.798 6.29954L9.65426 8.15163L10.2959 10.9079C10.3251 11.0343 10.3154 11.1485 10.2668 11.2506C10.2181 11.3527 10.1501 11.4377 10.0626 11.5058C9.97509 11.5738 9.87301 11.6127 9.75634 11.6225C9.63967 11.6322 9.52787 11.603 9.42092 11.535L7.00009 10.0766Z" fill="current"/>
</svg>